# xmcd
#
# Track frame offsets:
#	150
#	11345
#	22197
#	33167
#	48630
#	59415
#	71075
#	85952
#	97565
#	111080
#	124890
#	136762
#	150715
#	167195
#	192467
#	204275
#	223100
#	234600
#	248155
#	260550
#
# Disc length: 3588 seconds
#
# Revision: 1
# Processed by: cddbd v1.5PL3 Copyright (c) Steve Scherf et al.
# Submitted via: CDex 1.50Beta5
#
DISCID=190e0214
DTITLE=Jeff Beck - Yardbirds Years
DYEAR=1900
DGENRE=Rock -> Classic Rock
TTITLE0=Heart Full Of Soul
TTITLE1=Evil Hearted You
TTITLE2=Shapes Of Things
TTITLE3=The Train Kept A-Rollin'
TTITLE4=Someone To Love
TTITLE5=Steeled Blues
TTITLE6=You'Re A Better Man Than I
TTITLE7=I'm Not Talking
TTITLE8=Still I'm Sad
TTITLE9=Jeff'S Blues
TTITLE10=I'm A Man
TTITLE11=What Do You Want
TTITLE12=I Ain'T Done Wrong
TTITLE13=My Girl Sloopy
TTITLE14=Chris' Number
TTITLE15=New York City Blues
TTITLE16=Pounds And Stomps
TTITLE17=Like Jimmy Reed Again
TTITLE18=Stroll On
TTITLE19=Heart Full Of Soul Sitar Version
EXTD=
EXTT0=
EXTT1=
EXTT2=
EXTT3=
EXTT4=
EXTT5=
EXTT6=
EXTT7=
EXTT8=
EXTT9=
EXTT10=
EXTT11=
EXTT12=
EXTT13=
EXTT14=
EXTT15=
EXTT16=
EXTT17=
EXTT18=
EXTT19=
PLAYORDER=
